<?xml version="1.0" encoding="UTF-8"?>
<!DOCTYPE svg PUBLIC "-//W3C//DTD SVG 1.1//EN" "http://www.w3.org/Graphics/SVG/1.1/DTD/svg11.dtd">
<svg xmlns="http://www.w3.org/2000/svg" version="1.1" width="726px" height="315px" style="shape-rendering:geometricPrecision; text-rendering:geometricPrecision; image-rendering:optimizeQuality; fill-rule:evenodd; clip-rule:evenodd" xmlns:xlink="http://www.w3.org/1999/xlink">
<g><path style="opacity:1" fill="#fcefcf" d="M -0.5,-0.5 C 241.5,-0.5 483.5,-0.5 725.5,-0.5C 725.5,104.5 725.5,209.5 725.5,314.5C 712.833,314.5 700.167,314.5 687.5,314.5C 688.011,304.397 687.344,294.397 685.5,284.5C 686.435,275.891 686.602,266.891 686,257.5C 687.469,265.997 687.969,274.664 687.5,283.5C 689.59,283.55 690.923,282.55 691.5,280.5C 690.675,279.614 689.675,279.281 688.5,279.5C 688.589,273.456 688.589,267.622 688.5,262C 689.167,261.667 689.833,261.333 690.5,261C 690.5,259.333 690.5,257.667 690.5,256C 689.552,255.517 688.552,255.351 687.5,255.5C 687.5,250.167 687.5,244.833 687.5,239.5C 683.416,240.055 682.749,239.055 685.5,236.5C 683.429,234.07 683.096,231.403 684.5,228.5C 684.478,229.995 684.811,231.662 685.5,233.5C 686.308,233.192 686.975,232.692 687.5,232C 687.517,228.367 687.35,224.533 687,220.5C 686.431,224.361 685.598,224.361 684.5,220.5C 683.832,222.926 683.498,225.259 683.5,227.5C 682.922,224.631 681.922,221.965 680.5,219.5C 682.04,218.468 682.54,217.135 682,215.5C 681.237,218.063 680.737,218.063 680.5,215.5C 680.68,214.446 681.013,213.446 681.5,212.5C 678.49,209.167 676.99,205.167 677,200.5C 673.851,196.74 673.018,192.906 674.5,189C 673.529,187.796 672.529,187.296 671.5,187.5C 672.167,186.833 672.833,186.167 673.5,185.5C 672.022,182.368 671.022,179.035 670.5,175.5C 670.467,176.989 669.967,178.322 669,179.5C 668.767,177.22 667.934,175.22 666.5,173.5C 667.32,171.057 666.653,168.891 664.5,167C 664.833,166.667 665.167,166.333 665.5,166C 664.69,160.647 663.19,155.481 661,150.5C 660.147,148.875 659.147,148.542 658,149.5C 657.641,146.456 656.974,146.122 656,148.5C 655.5,141.508 655.334,134.508 655.5,127.5C 654.5,127.5 653.5,127.5 652.5,127.5C 652.785,125.712 652.452,124.045 651.5,122.5C 649.53,123.443 648.03,122.776 647,120.5C 647.128,117.68 647.295,115.013 647.5,112.5C 641.197,111.632 640.863,109.798 646.5,107C 644.249,107.207 641.915,107.373 639.5,107.5C 639.5,103.5 639.5,99.5 639.5,95.5C 637.712,95.7852 636.045,95.4519 634.5,94.5C 634.709,93.914 635.043,93.414 635.5,93C 633.5,92.1667 631.5,91.3333 629.5,90.5C 628.846,88.8849 628.346,87.2182 628,85.5C 623.519,83.349 620.019,80.1823 617.5,76C 614.03,74.435 611.697,71.7683 610.5,68C 607.5,67 604.5,66 601.5,65C 601.854,63.3745 601.854,61.5412 601.5,59.5C 589.58,56.6578 577.247,54.6578 564.5,53.5C 557.027,54.1858 549.694,55.5191 542.5,57.5C 539.062,56.9373 535.729,56.9373 532.5,57.5C 529.773,59.226 527.773,61.5593 526.5,64.5C 522.665,66.5213 518.999,68.6879 515.5,71C 515.868,72.473 515.368,73.973 514,75.5C 513.586,75.0426 513.086,74.7093 512.5,74.5C 509.932,76.7172 506.932,77.8839 503.5,78C 504.5,78.3333 505.5,78.6667 506.5,79C 504.527,79.4955 502.527,79.6621 500.5,79.5C 500.702,81.9892 500.202,84.3225 499,86.5C 493.781,89.0509 488.948,92.0509 484.5,95.5C 484.313,97.5643 483.813,99.5643 483,101.5C 479.086,101.137 475.253,99.8042 471.5,97.5C 471.467,96.011 470.967,94.6776 470,93.5C 469.586,93.9574 469.086,94.2907 468.5,94.5C 467.15,93.0499 465.484,92.3832 463.5,92.5C 463.649,91.448 463.483,90.448 463,89.5C 460.87,88.8592 459.37,87.5259 458.5,85.5C 455.788,84.7719 453.121,83.9385 450.5,83C 451.641,82.2588 451.641,81.4255 450.5,80.5C 442.908,79.7167 436.575,76.55 431.5,71C 425.165,69.8331 418.832,68.6665 412.5,67.5C 411.524,68.1953 410.524,68.862 409.5,69.5C 409.167,69.5 408.833,69.5 408.5,69.5C 408.5,68.1667 408.5,66.8333 408.5,65.5C 397.565,64.0058 386.565,63.3391 375.5,63.5C 375.5,61.8333 375.5,60.1667 375.5,58.5C 363.245,58.7411 351.078,58.7411 339,58.5C 337.795,59.0712 336.628,59.7379 335.5,60.5C 336.641,61.4255 336.641,62.2588 335.5,63C 328.5,63.3333 321.5,63.6667 314.5,64C 312.25,64.6108 310.583,65.9441 309.5,68C 306.45,69.82 303.617,69.6533 301,67.5C 295.043,70.2219 288.876,72.5552 282.5,74.5C 282.023,75.931 281.357,77.2643 280.5,78.5C 278.289,79.1228 276.289,80.1228 274.5,81.5C 273.914,81.2907 273.414,80.9574 273,80.5C 271.43,81.3578 269.763,82.0245 268,82.5C 263.31,85.7794 258.476,88.7794 253.5,91.5C 252.914,91.2907 252.414,90.9574 252,90.5C 251.464,92.8689 250.297,94.8689 248.5,96.5C 247.726,97.7112 246.893,97.7112 246,96.5C 245.667,97.1667 245.333,97.8333 245,98.5C 243.551,97.3859 242.217,96.3859 241,95.5C 240.667,95.8333 240.333,96.1667 240,96.5C 237.165,92.6318 234.331,88.7985 231.5,85C 229.888,84.2797 228.388,84.4464 227,85.5C 223.796,82.2107 219.963,80.044 215.5,79C 216.167,78.6667 216.833,78.3333 217.5,78C 214.565,75.5401 211.565,73.0401 208.5,70.5C 207.571,69.3112 207.238,67.9778 207.5,66.5C 204.854,66.1084 202.354,66.1084 200,66.5C 198.926,62.218 196.426,60.218 192.5,60.5C 187.156,58.6649 181.823,56.8316 176.5,55C 166.572,54.0716 156.738,53.5716 147,53.5C 144.625,53.8178 143.458,55.1511 143.5,57.5C 122.961,62.7158 107.295,74.3825 96.5,92.5C 85.8255,107.514 77.4922,123.847 71.5,141.5C 66.7709,152.688 62.4376,164.021 58.5,175.5C 57.5,175.5 56.5,175.5 55.5,175.5C 54.8234,184.299 52.3234,192.633 48,200.5C 47.6667,203.5 47.3333,206.5 47,209.5C 45.6189,211.635 44.6189,213.968 44,216.5C 43.6667,220.5 43.3333,224.5 43,228.5C 38.9705,238.361 36.9705,248.694 37,259.5C 36.3333,260.833 35.6667,262.167 35,263.5C 34.5001,280.497 34.3334,297.497 34.5,314.5C 22.8333,314.5 11.1667,314.5 -0.5,314.5C -0.5,209.5 -0.5,104.5 -0.5,-0.5 Z"/></g>
<g><path style="opacity:1" fill="#2b140b" d="M 646.5,133.5 C 646.483,135.028 645.816,135.528 644.5,135C 644.957,134.586 645.291,134.086 645.5,133.5C 641.36,127.167 638.526,121.833 637,117.5C 636.667,118.5 636.333,119.5 636,120.5C 635.767,118.22 634.934,116.22 633.5,114.5C 633.709,113.914 634.043,113.414 634.5,113C 630.497,111.085 627.997,107.918 627,103.5C 625.442,101.641 623.609,100.141 621.5,99C 622.428,98.6121 623.095,97.9454 623.5,97C 622.176,93.4645 620.342,90.2978 618,87.5C 615.094,84.9627 611.927,82.796 608.5,81C 605.266,75.9233 600.932,71.9233 595.5,69C 594.207,68.51 592.873,68.3433 591.5,68.5C 591.5,66.8333 591.5,65.1667 591.5,63.5C 585.978,63.1678 580.811,64.1678 576,66.5C 575.517,65.552 575.351,64.552 575.5,63.5C 570.497,62.1039 565.33,61.1039 560,60.5C 552.715,62.8322 545.215,63.9988 537.5,64C 533.016,66.6506 529.35,70.1506 526.5,74.5C 526.167,73.8333 525.833,73.1667 525.5,72.5C 524.646,73.5217 523.646,74.3551 522.5,75C 522.833,75.3333 523.167,75.6667 523.5,76C 522.24,77.113 521.073,77.2797 520,76.5C 519.517,77.448 519.351,78.448 519.5,79.5C 516.063,79.5519 513.063,80.7186 510.5,83C 511.654,83.9138 511.487,84.7471 510,85.5C 509.667,85.1667 509.333,84.8333 509,84.5C 507.887,85.7604 507.72,86.927 508.5,88C 507,88.8333 505.833,90 505,91.5C 504.439,90.9781 503.772,90.6448 503,90.5C 500.637,92.0767 498.47,93.7434 496.5,95.5C 495.5,95.5 494.5,95.5 493.5,95.5C 505.6,82.2356 519.6,71.4023 535.5,63C 566.691,50.4515 593.858,56.2849 617,80.5C 629.422,96.672 639.255,114.339 646.5,133.5 Z"/></g>
<g><path style="opacity:1" fill="#f4ebd5" d="M 408.5,69.5 C 392.835,66.2293 377.001,64.2293 361,63.5C 346.915,63.5213 333.081,65.188 319.5,68.5C 317.901,68.2322 316.568,68.5655 315.5,69.5C 294.541,74.1506 275.541,82.8173 258.5,95.5C 254.242,97.7931 250.576,100.793 247.5,104.5C 245.886,105.271 244.386,106.271 243,107.5C 231.87,97.7087 220.704,87.8753 209.5,78C 190.588,61.4193 168.588,54.5859 143.5,57.5C 143.458,55.1511 144.625,53.8178 147,53.5C 156.738,53.5716 166.572,54.0716 176.5,55C 181.823,56.8316 187.156,58.6649 192.5,60.5C 196.426,60.218 198.926,62.218 200,66.5C 202.354,66.1084 204.854,66.1084 207.5,66.5C 207.238,67.9778 207.571,69.3112 208.5,70.5C 211.565,73.0401 214.565,75.5401 217.5,78C 216.833,78.3333 216.167,78.6667 215.5,79C 219.963,80.044 223.796,82.2107 227,85.5C 228.388,84.4464 229.888,84.2797 231.5,85C 234.331,88.7985 237.165,92.6318 240,96.5C 240.333,96.1667 240.667,95.8333 241,95.5C 242.217,96.3859 243.551,97.3859 245,98.5C 245.333,97.8333 245.667,97.1667 246,96.5C 246.893,97.7112 247.726,97.7112 248.5,96.5C 250.297,94.8689 251.464,92.8689 252,90.5C 252.414,90.9574 252.914,91.2907 253.5,91.5C 258.476,88.7794 263.31,85.7794 268,82.5C 269.763,82.0245 271.43,81.3578 273,80.5C 273.414,80.9574 273.914,81.2907 274.5,81.5C 276.289,80.1228 278.289,79.1228 280.5,78.5C 281.357,77.2643 282.023,75.931 282.5,74.5C 288.876,72.5552 295.043,70.2219 301,67.5C 303.617,69.6533 306.45,69.82 309.5,68C 310.583,65.9441 312.25,64.6108 314.5,64C 321.5,63.6667 328.5,63.3333 335.5,63C 336.641,62.2588 336.641,61.4255 335.5,60.5C 336.628,59.7379 337.795,59.0712 339,58.5C 351.078,58.7411 363.245,58.7411 375.5,58.5C 375.5,60.1667 375.5,61.8333 375.5,63.5C 386.565,63.3391 397.565,64.0058 408.5,65.5C 408.5,66.8333 408.5,68.1667 408.5,69.5 Z"/></g>
<g><path style="opacity:1" fill="#24150f" d="M 634.5,143.5 C 632.484,139.094 630.484,134.761 628.5,130.5C 621.256,110.141 609.256,93.308 592.5,80C 577.152,71.8316 561.152,70.3316 544.5,75.5C 544.062,75.5654 543.728,75.3988 543.5,75C 546.792,71.6889 550.792,70.0222 555.5,70C 570.42,68.0839 583.753,71.5839 595.5,80.5C 596.086,80.2907 596.586,79.9574 597,79.5C 599.821,81.3224 602.321,83.4891 604.5,86C 605.449,86.6172 606.282,86.4506 607,85.5C 607.192,87.5767 607.692,89.5767 608.5,91.5C 619.295,107.417 628.295,124.417 635.5,142.5C 635.376,143.107 635.043,143.44 634.5,143.5 Z"/></g>
<g><path style="opacity:1" fill="#311308" d="M 435.5,84.5 C 433.792,84.6227 431.959,84.9561 430,85.5C 428.933,84.8095 427.766,84.3095 426.5,84C 426.966,82.7012 426.966,81.2012 426.5,79.5C 424.167,79.5 421.833,79.5 419.5,79.5C 419.286,81.1439 419.62,82.6439 420.5,84C 424.222,85.7863 427.889,87.6196 431.5,89.5C 425.674,90.0001 420.341,88.6668 415.5,85.5C 408.074,84.4481 400.741,82.9481 393.5,81C 392.944,80.6174 392.611,80.1174 392.5,79.5C 399.227,80.4851 405.727,81.4851 412,82.5C 415.097,81.7107 415.264,80.544 412.5,79C 414.271,78.4646 414.604,77.6313 413.5,76.5C 410.618,75.0392 407.618,73.8725 404.5,73C 394.253,72.3046 384.42,70.1379 375,66.5C 366.255,66.6076 357.422,66.7742 348.5,67C 339.042,69.9479 329.376,71.7812 319.5,72.5C 316.71,73.5968 313.877,74.5968 311,75.5C 308.663,75.1015 306.163,75.1015 303.5,75.5C 303.5,76.8333 303.5,78.1667 303.5,79.5C 300.5,79.5 297.5,79.5 294.5,79.5C 296.428,77.5259 298.761,76.0259 301.5,75C 306.123,73.595 310.789,72.2616 315.5,71C 318.097,70.2208 318.097,69.7208 315.5,69.5C 316.568,68.5655 317.901,68.2322 319.5,68.5C 324.383,68.5468 329.383,68.5468 334.5,68.5C 338.236,66.8175 342.236,65.9841 346.5,66C 366.48,64.2378 386.147,65.9044 405.5,71C 409.281,72.4692 412.781,74.3025 416,76.5C 421.079,74.7749 425.579,75.7749 429.5,79.5C 430.812,78.5396 432.146,78.7063 433.5,80C 433.342,81.5869 434.009,83.0869 435.5,84.5 Z"/></g>
<g><path style="opacity:1" fill="#361203" d="M 392.5,79.5 C 376.935,77.4674 361.268,76.134 345.5,75.5C 339.578,75.8402 333.745,76.5069 328,77.5C 327.667,77.1667 327.333,76.8333 327,76.5C 326.228,77.8491 325.061,78.6824 323.5,79C 316.548,79.0639 309.882,80.2306 303.5,82.5C 303.66,84.1992 303.494,85.8659 303,87.5C 300.047,86.249 297.047,86.249 294,87.5C 292.699,88.0981 291.865,89.0981 291.5,90.5C 288.553,91.3214 285.553,91.8214 282.5,92C 281.663,93.0113 281.33,94.1779 281.5,95.5C 276.652,97.1363 271.652,98.1363 266.5,98.5C 266.5,97.5 266.5,96.5 266.5,95.5C 268.167,95.5 269.833,95.5 271.5,95.5C 271.5,94.5 271.5,93.5 271.5,92.5C 274.5,92.1667 276.167,90.5 276.5,87.5C 282.301,86.8293 287.634,85.6626 292.5,84C 291.167,83.6667 289.833,83.3333 288.5,83C 291.025,82.5762 293.025,81.4095 294.5,79.5C 297.5,79.5 300.5,79.5 303.5,79.5C 303.5,78.1667 303.5,76.8333 303.5,75.5C 306.163,75.1015 308.663,75.1015 311,75.5C 313.877,74.5968 316.71,73.5968 319.5,72.5C 329.376,71.7812 339.042,69.9479 348.5,67C 357.422,66.7742 366.255,66.6076 375,66.5C 384.42,70.1379 394.253,72.3046 404.5,73C 407.618,73.8725 410.618,75.0392 413.5,76.5C 414.604,77.6313 414.271,78.4646 412.5,79C 415.264,80.544 415.097,81.7107 412,82.5C 405.727,81.4851 399.227,80.4851 392.5,79.5 Z"/></g>
<g><path style="opacity:1" fill="#25150d" d="M 224.5,112.5 C 213.686,102.929 202.686,93.596 191.5,84.5C 174.323,72.249 155.656,69.4157 135.5,76C 133.416,76.6972 131.749,77.8639 130.5,79.5C 121.23,85.6021 113.397,93.2688 107,102.5C 99.0802,116.339 92.2469,130.672 86.5,145.5C 85.7656,144.122 85.0989,142.622 84.5,141C 87.9768,137.61 90.1435,133.443 91,128.5C 93.2933,124.748 95.4599,120.914 97.5,117C 99.3108,111.06 102.311,105.393 106.5,100C 106.167,99.6667 105.833,99.3333 105.5,99C 106.103,97.1746 106.77,95.3413 107.5,93.5C 108.524,92.1468 109.857,91.4802 111.5,91.5C 112.049,89.0987 112.882,86.7654 114,84.5C 114.333,84.8333 114.667,85.1667 115,85.5C 116.789,83.771 118.956,83.1043 121.5,83.5C 121.433,82.0413 121.766,80.7079 122.5,79.5C 124.145,78.5213 125.479,77.188 126.5,75.5C 141.399,69.4104 156.732,68.077 172.5,71.5C 173.167,71.1667 173.833,70.8333 174.5,70.5C 180.66,72.9655 186.326,75.9655 191.5,79.5C 191.22,82.3882 192.553,83.8882 195.5,84C 197.213,85.3782 198.547,87.0448 199.5,89C 202.757,90.2623 205.423,92.2623 207.5,95C 209.167,95.3333 210.833,95.6667 212.5,96C 212.799,97.3204 212.966,98.8204 213,100.5C 214.419,101.46 215.919,102.293 217.5,103C 220.167,106.333 223.167,109.333 226.5,112C 225.906,112.464 225.239,112.631 224.5,112.5 Z"/></g>
<g><path style="opacity:1" fill="#28130b" d="M 247.5,104.5 C 246.457,107.056 244.79,109.223 242.5,111C 240.08,110.975 237.747,110.309 235.5,109C 232.999,105.83 231.165,102.33 230,98.5C 228.089,98.2549 226.089,98.2549 224,98.5C 223.667,96.5 223.333,94.5 223,92.5C 222.586,92.9574 222.086,93.2907 221.5,93.5C 220.138,91.988 219.804,90.488 220.5,89C 217.511,87.696 215.011,85.8627 213,83.5C 212.667,83.8333 212.333,84.1667 212,84.5C 210.471,83.2713 209.304,81.7713 208.5,80C 207.207,79.51 205.873,79.3433 204.5,79.5C 204.688,77.8967 204.188,76.5634 203,75.5C 201.667,75.5 200.333,75.5 199,75.5C 196.489,72.657 193.656,70.157 190.5,68C 187.993,67.9071 185.826,67.0738 184,65.5C 182.187,66.6091 181.354,65.9424 181.5,63.5C 177.09,63.2601 172.923,62.9268 169,62.5C 164.866,63.1959 160.7,63.8625 156.5,64.5C 155.252,63.9598 154.085,63.2931 153,62.5C 147.249,63.3104 141.416,63.8104 135.5,64C 133.968,64.6995 132.968,65.8662 132.5,67.5C 131.675,68.3857 130.675,68.719 129.5,68.5C 129.918,67.7784 130.584,67.2784 131.5,67C 128.485,66.7991 125.485,67.1324 122.5,68C 121.284,69.7398 119.618,70.7398 117.5,71C 110.498,77.5274 103.498,84.6941 96.5,92.5C 107.295,74.3825 122.961,62.7158 143.5,57.5C 168.588,54.5859 190.588,61.4193 209.5,78C 220.704,87.8753 231.87,97.7087 243,107.5C 244.386,106.271 245.886,105.271 247.5,104.5 Z"/></g>
<g><path style="opacity:1" fill="#f2ecd5" d="M 628.5,130.5 C 628.244,133.24 627.244,135.574 625.5,137.5C 624.194,136.088 623.36,134.421 623,132.5C 621.887,131.695 620.721,131.028 619.5,130.5C 612.433,121.927 604.766,113.761 596.5,106C 580.979,92.1959 563.313,88.6959 543.5,95.5C 537.232,99.643 530.899,103.81 524.5,108C 516.917,115.751 509.25,123.251 501.5,130.5C 498.899,127.396 496.066,124.396 493,121.5C 492.018,120.241 491.685,118.908 492,117.5C 507.258,101.726 524.092,88.0597 542.5,76.5C 543.492,76.6716 544.158,76.3382 544.5,75.5C 561.152,70.3316 577.152,71.8316 592.5,80C 609.256,93.308 621.256,110.141 628.5,130.5 Z"/></g>
<g><path style="opacity:1" fill="#26140f" d="M 408.5,69.5 C 408.833,69.5 409.167,69.5 409.5,69.5C 430.876,75.688 450.543,85.3547 468.5,98.5C 467.534,101.125 466.534,101.125 465.5,98.5C 464.914,98.7093 464.414,99.0426 464,99.5C 459.525,95.696 455.025,91.8627 450.5,88C 445.099,87.8825 440.099,86.7158 435.5,84.5C 434.009,83.0869 433.342,81.5869 433.5,80C 432.146,78.7063 430.812,78.5396 429.5,79.5C 425.579,75.7749 421.079,74.7749 416,76.5C 412.781,74.3025 409.281,72.4692 405.5,71C 386.147,65.9044 366.48,64.2378 346.5,66C 342.236,65.9841 338.236,66.8175 334.5,68.5C 329.383,68.5468 324.383,68.5468 319.5,68.5C 333.081,65.188 346.915,63.5213 361,63.5C 377.001,64.2293 392.835,66.2293 408.5,69.5 Z"/></g>
<g><path style="opacity:1" fill="#f8eed1" d="M 191.5,84.5 C 191.5,86.5 191.5,88.5 191.5,90.5C 195.138,89.7366 196.638,91.0699 196,94.5C 189.677,96.3588 183.844,95.5255 178.5,92C 166.977,89.2309 155.31,88.7309 143.5,90.5C 143.5,91.8333 143.5,93.1667 143.5,94.5C 142.432,95.4345 141.099,95.7678 139.5,95.5C 135.061,96.2524 130.894,97.9191 127,100.5C 126.586,100.043 126.086,99.7093 125.5,99.5C 123.9,101.568 122.234,103.734 120.5,106C 119.216,106.684 118.049,106.517 117,105.5C 116.647,100.716 118.813,96.8826 123.5,94C 122.396,92.8687 122.729,92.0354 124.5,91.5C 126.123,92.4908 127.123,91.8241 127.5,89.5C 126.371,87.4706 126.871,87.1373 129,88.5C 131.149,87.348 132.982,85.848 134.5,84C 131.456,83.6411 131.122,82.9745 133.5,82C 132.429,81.1482 131.429,80.3149 130.5,79.5C 131.749,77.8639 133.416,76.6972 135.5,76C 155.656,69.4157 174.323,72.249 191.5,84.5 Z"/></g>
<g><path style="opacity:1" fill="#20130d" d="M 315.5,69.5 C 318.097,69.7208 318.097,70.2208 315.5,71C 310.789,72.2616 306.123,73.595 301.5,75C 298.761,76.0259 296.428,77.5259 294.5,79.5C 293.85,79.1961 293.183,78.8627 292.5,78.5C 288.602,81.293 284.269,83.1264 279.5,84C 276.629,85.9345 273.629,87.6012 270.5,89C 269.874,89.7504 269.374,90.5838 269,91.5C 268.667,91.1667 268.333,90.8333 268,90.5C 265.761,93.6495 262.761,95.6495 259,96.5C 258.601,96.2716 258.435,95.9382 258.5,95.5C 275.541,82.8173 294.541,74.1506 315.5,69.5 Z"/></g>
<g><path style="opacity:1" fill="#9fbac5" d="M 219.5,131.5 C 197.214,160.651 183.88,193.651 179.5,230.5C 174.757,231.561 171.091,234.227 168.5,238.5C 166.396,242.232 164.896,246.232 164,250.5C 161.285,271.747 160.118,293.08 160.5,314.5C 129.833,314.5 99.1667,314.5 68.5,314.5C 65.2809,273.563 68.7809,233.23 79,193.5C 79.7625,189.413 79.5958,185.413 78.5,181.5C 80.2285,173.867 83.2285,166.701 87.5,160C 87.2716,159.601 86.9382,159.435 86.5,159.5C 88.1667,155.5 89.8333,151.5 91.5,147.5C 98.4157,137.402 105.582,127.402 113,117.5C 121.148,109.171 129.981,101.838 139.5,95.5C 141.099,95.7678 142.432,95.4345 143.5,94.5C 154.963,91.5154 166.296,92.0154 177.5,96C 185.139,100.155 192.472,104.821 199.5,110C 206.796,116.788 213.462,123.954 219.5,131.5 Z"/></g>
<g><path style="opacity:1" fill="#301509" d="M 542.5,76.5 C 524.092,88.0597 507.258,101.726 492,117.5C 491.685,118.908 492.018,120.241 493,121.5C 496.066,124.396 498.899,127.396 501.5,130.5C 501.833,131.167 502.167,131.833 502.5,132.5C 506.352,139.71 510.685,146.71 515.5,153.5C 517.558,157.865 519.558,162.199 521.5,166.5C 519.704,165.207 518.037,163.707 516.5,162C 516.833,161.667 517.167,161.333 517.5,161C 515.556,158.169 513.723,155.336 512,152.5C 509.714,152.27 507.881,150.937 506.5,148.5C 505.281,149.646 503.948,150.646 502.5,151.5C 503.692,155.856 506.359,158.689 510.5,160C 509.62,161.356 509.286,162.856 509.5,164.5C 504.895,161.319 501.728,156.985 500,151.5C 499.241,149.937 498.074,148.937 496.5,148.5C 494.69,145.069 493.69,141.402 493.5,137.5C 494.81,139.435 496.143,141.435 497.5,143.5C 498.711,142.61 500.045,142.61 501.5,143.5C 504.028,142.831 504.028,141.998 501.5,141C 502.5,140.667 503.5,140.333 504.5,140C 503.084,136.513 500.584,133.346 497,130.5C 496.517,129.552 496.351,128.552 496.5,127.5C 494.071,127.116 491.737,126.449 489.5,125.5C 490.974,122.673 490.64,120.173 488.5,118C 489.576,116.274 489.743,114.441 489,112.5C 488.346,113.696 487.846,113.696 487.5,112.5C 488.167,111.833 488.833,111.167 489.5,110.5C 487.718,109.852 485.885,108.519 484,106.5C 482.989,107.337 481.822,107.67 480.5,107.5C 484.227,102.77 488.56,98.7703 493.5,95.5C 494.5,95.5 495.5,95.5 496.5,95.5C 496.343,96.8734 496.51,98.2068 497,99.5C 497.333,98.8333 497.667,98.1667 498,97.5C 498.667,98.8333 499.333,98.8333 500,97.5C 500.238,92.6098 500.905,92.6098 502,97.5C 502.691,95.1088 503.691,95.1088 505,97.5C 505.333,96.8333 505.667,96.1667 506,95.5C 507.808,95.8881 509.475,95.8881 511,95.5C 518.025,85.9316 526.858,79.4316 537.5,76C 539.387,75.2204 541.054,75.3871 542.5,76.5 Z"/></g>
<g><path style="opacity:1" fill="#a0bac4" d="M 619.5,130.5 C 628.779,145.391 637.279,160.725 645,176.5C 645.464,175.906 645.631,175.239 645.5,174.5C 647.87,180.616 649.87,186.949 651.5,193.5C 651.631,194.239 651.464,194.906 651,195.5C 649.615,190.939 647.782,186.606 645.5,182.5C 644.291,185.086 642.957,187.586 641.5,190C 652.934,230.754 656.934,272.254 653.5,314.5C 622.833,314.5 592.167,314.5 561.5,314.5C 561.941,294.073 560.775,273.739 558,253.5C 556.923,245.911 553.757,239.411 548.5,234C 546.922,232.906 545.255,232.072 543.5,231.5C 538.987,203.841 530.153,177.507 517,152.5C 512.879,145.235 508.046,138.568 502.5,132.5C 502.167,131.833 501.833,131.167 501.5,130.5C 509.25,123.251 516.917,115.751 524.5,108C 530.899,103.81 537.232,99.643 543.5,95.5C 563.313,88.6959 580.979,92.1959 596.5,106C 604.766,113.761 612.433,121.927 619.5,130.5 Z"/></g>
<g><path style="opacity:1" fill="#f5efd8" d="M 191.5,84.5 C 202.686,93.596 213.686,102.929 224.5,112.5C 225.973,114.395 227.64,116.061 229.5,117.5C 230.525,117.897 230.692,118.563 230,119.5C 225.918,123.076 222.418,127.076 219.5,131.5C 213.462,123.954 206.796,116.788 199.5,110C 192.472,104.821 185.139,100.155 177.5,96C 166.296,92.0154 154.963,91.5154 143.5,94.5C 143.5,93.1667 143.5,91.8333 143.5,90.5C 155.31,88.7309 166.977,89.2309 178.5,92C 183.844,95.5255 189.677,96.3588 196,94.5C 196.638,91.0699 195.138,89.7366 191.5,90.5C 191.5,88.5 191.5,86.5 191.5,84.5 Z"/></g>
<g><path style="opacity:1" fill="#9fbac4" d="M 354.5,108.5 C 356.514,108.608 358.18,107.942 359.5,106.5C 360.924,104.485 361.59,102.152 361.5,99.5C 366.149,98.7053 370.816,98.5386 375.5,99C 372.937,99.763 372.937,100.263 375.5,100.5C 382.059,98.6267 388.725,98.1267 395.5,99C 404.108,100.584 412.442,102.917 420.5,106C 422.747,108.853 425.413,109.686 428.5,108.5C 437.29,111.118 445.29,115.284 452.5,121C 456.302,121.409 459.969,122.243 463.5,123.5C 464.167,123.5 464.833,123.5 465.5,123.5C 468.804,125.14 471.471,127.473 473.5,130.5C 474.763,132.43 476.43,134.097 478.5,135.5C 479.506,136.396 479.506,137.062 478.5,137.5C 474.421,132.867 469.421,130.367 463.5,130C 486.689,154.204 502.189,182.704 510,215.5C 516.791,248.143 519.625,281.143 518.5,314.5C 412.167,314.5 305.833,314.5 199.5,314.5C 199.807,308.659 200.974,302.992 203,297.5C 203.781,277.42 205.448,257.42 208,237.5C 212.879,222.416 217.046,207.083 220.5,191.5C 221.5,191.5 222.5,191.5 223.5,191.5C 223.5,188.833 223.5,186.167 223.5,183.5C 236.843,152.17 258.176,128.17 287.5,111.5C 288.167,111.5 288.833,111.5 289.5,111.5C 293.839,109.352 298.506,108.352 303.5,108.5C 303.5,107.5 303.5,106.5 303.5,105.5C 311.361,103.269 319.194,100.935 327,98.5C 328.734,99.2489 330.567,99.7489 332.5,100C 330.751,101.292 328.918,102.458 327,103.5C 325.621,107.475 326.787,110.309 330.5,112C 327.14,115.596 327.973,117.429 333,117.5C 335.059,116.382 337.226,115.715 339.5,115.5C 341.04,112.74 342.373,109.74 343.5,106.5C 342.022,103.712 340.689,100.878 339.5,98C 342.685,97.6121 345.685,98.2787 348.5,100C 347.833,102 347.167,104 346.5,106C 347.617,107.892 349.284,108.725 351.5,108.5C 351.5,109.5 351.5,110.5 351.5,111.5C 350.325,111.281 349.325,111.614 348.5,112.5C 350.815,115.025 352.315,118.025 353,121.5C 353.684,120.216 353.517,119.049 352.5,118C 353.5,117.167 354.5,116.333 355.5,115.5C 354.242,116.016 353.242,115.35 352.5,113.5C 353.376,112.749 354.376,112.249 355.5,112C 354.663,110.989 354.33,109.822 354.5,108.5 Z"/></g>
<g><path style="opacity:1" fill="#371406" d="M 435.5,84.5 C 440.099,86.7158 445.099,87.8825 450.5,88C 455.025,91.8627 459.525,95.696 464,99.5C 464.414,99.0426 464.914,98.7093 465.5,98.5C 466.534,101.125 467.534,101.125 468.5,98.5C 472.518,101.524 476.518,104.524 480.5,107.5C 481.822,107.67 482.989,107.337 484,106.5C 485.885,108.519 487.718,109.852 489.5,110.5C 488.833,111.167 488.167,111.833 487.5,112.5C 487.846,113.696 488.346,113.696 489,112.5C 489.743,114.441 489.576,116.274 488.5,118C 490.64,120.173 490.974,122.673 489.5,125.5C 491.737,126.449 494.071,127.116 496.5,127.5C 496.351,128.552 496.517,129.552 497,130.5C 500.584,133.346 503.084,136.513 504.5,140C 503.5,140.333 502.5,140.667 501.5,141C 504.028,141.998 504.028,142.831 501.5,143.5C 500.045,142.61 498.711,142.61 497.5,143.5C 496.143,141.435 494.81,139.435 493.5,137.5C 492.009,137.099 490.342,136.932 488.5,137C 487.167,135.333 485.833,133.667 484.5,132C 484.833,131.667 485.167,131.333 485.5,131C 483.953,128.674 482.119,127.507 480,127.5C 479.517,126.552 479.351,125.552 479.5,124.5C 478.448,124.649 477.448,124.483 476.5,124C 476.833,123.667 477.167,123.333 477.5,123C 470.191,119.059 463.858,113.392 458.5,106C 455.441,105.942 453.108,104.609 451.5,102C 450.207,101.51 448.873,101.343 447.5,101.5C 447.5,100.5 447.5,99.5 447.5,98.5C 445.073,98.477 442.74,97.977 440.5,97C 440.833,96.6667 441.167,96.3333 441.5,96C 438.42,95.2345 435.42,94.2345 432.5,93C 431.663,91.9887 431.33,90.8221 431.5,89.5C 427.889,87.6196 424.222,85.7863 420.5,84C 419.62,82.6439 419.286,81.1439 419.5,79.5C 421.833,79.5 424.167,79.5 426.5,79.5C 426.966,81.2012 426.966,82.7012 426.5,84C 427.766,84.3095 428.933,84.8095 430,85.5C 431.959,84.9561 433.792,84.6227 435.5,84.5 Z"/></g>
<g><path style="opacity:1" fill="#371406" d="M 247.5,104.5 C 251.187,102.81 251.854,103.31 249.5,106C 250.448,106.483 251.448,106.649 252.5,106.5C 252.491,104.692 252.991,103.025 254,101.5C 257.227,101.677 259.56,100.01 261,96.5C 263.742,98.1206 265.576,100.454 266.5,103.5C 266.023,104.478 265.357,105.311 264.5,106C 265.34,107.666 264.84,107.833 263,106.5C 261.242,107.469 260.742,108.636 261.5,110C 258.321,110.597 255.987,112.263 254.5,115C 253.216,115.684 252.049,115.517 251,114.5C 250.51,115.793 250.343,117.127 250.5,118.5C 245.946,120.05 242.613,123.05 240.5,127.5C 238.509,128.82 236.509,130.154 234.5,131.5C 234.709,132.086 235.043,132.586 235.5,133C 234.333,134.167 233.167,135.333 232,136.5C 231.667,135.833 231.333,135.167 231,134.5C 223.669,144.303 221.169,142.969 223.5,130.5C 226.684,127.855 229.184,124.521 231,120.5C 231.781,119.056 231.614,117.723 230.5,116.5C 229.893,116.624 229.56,116.957 229.5,117.5C 227.64,116.061 225.973,114.395 224.5,112.5C 225.239,112.631 225.906,112.464 226.5,112C 223.167,109.333 220.167,106.333 217.5,103C 215.919,102.293 214.419,101.46 213,100.5C 212.966,98.8204 212.799,97.3204 212.5,96C 210.833,95.6667 209.167,95.3333 207.5,95C 205.423,92.2623 202.757,90.2623 199.5,89C 198.547,87.0448 197.213,85.3782 195.5,84C 192.553,83.8882 191.22,82.3882 191.5,79.5C 186.326,75.9655 180.66,72.9655 174.5,70.5C 173.833,70.8333 173.167,71.1667 172.5,71.5C 156.732,68.077 141.399,69.4104 126.5,75.5C 125.479,77.188 124.145,78.5213 122.5,79.5C 121.815,78.846 120.815,78.846 119.5,79.5C 117.912,80.0096 116.745,81.0096 116,82.5C 114.396,81.9323 113.73,80.9323 114,79.5C 116.217,75.9768 119.217,73.3101 123,71.5C 123.414,71.9574 123.914,72.2907 124.5,72.5C 126.489,71.3681 128.156,70.0348 129.5,68.5C 130.675,68.719 131.675,68.3857 132.5,67.5C 132.968,65.8662 133.968,64.6995 135.5,64C 141.416,63.8104 147.249,63.3104 153,62.5C 154.085,63.2931 155.252,63.9598 156.5,64.5C 160.7,63.8625 164.866,63.1959 169,62.5C 172.923,62.9268 177.09,63.2601 181.5,63.5C 181.354,65.9424 182.187,66.6091 184,65.5C 185.826,67.0738 187.993,67.9071 190.5,68C 193.656,70.157 196.489,72.657 199,75.5C 200.333,75.5 201.667,75.5 203,75.5C 204.188,76.5634 204.688,77.8967 204.5,79.5C 205.873,79.3433 207.207,79.51 208.5,80C 209.304,81.7713 210.471,83.2713 212,84.5C 212.333,84.1667 212.667,83.8333 213,83.5C 215.011,85.8627 217.511,87.696 220.5,89C 219.804,90.488 220.138,91.988 221.5,93.5C 222.086,93.2907 222.586,92.9574 223,92.5C 223.333,94.5 223.667,96.5 224,98.5C 226.089,98.2549 228.089,98.2549 230,98.5C 231.165,102.33 232.999,105.83 235.5,109C 237.747,110.309 240.08,110.975 242.5,111C 244.79,109.223 246.457,107.056 247.5,104.5 Z"/></g>
<g><path style="opacity:1" fill="#f2ecd8" d="M 130.5,79.5 C 131.429,80.3149 132.429,81.1482 133.5,82C 131.122,82.9745 131.456,83.6411 134.5,84C 132.982,85.848 131.149,87.348 129,88.5C 126.871,87.1373 126.371,87.4706 127.5,89.5C 127.123,91.8241 126.123,92.4908 124.5,91.5C 122.729,92.0354 122.396,92.8687 123.5,94C 118.813,96.8826 116.647,100.716 117,105.5C 118.049,106.517 119.216,106.684 120.5,106C 122.234,103.734 123.9,101.568 125.5,99.5C 126.086,99.7093 126.586,100.043 127,100.5C 130.894,97.9191 135.061,96.2524 139.5,95.5C 129.981,101.838 121.148,109.171 113,117.5C 105.582,127.402 98.4157,137.402 91.5,147.5C 88.5551,148.984 86.5551,151.318 85.5,154.5C 84.8165,154.137 84.1499,153.804 83.5,153.5C 83.8782,151.079 84.5448,148.746 85.5,146.5C 86.1667,146.5 86.5,146.167 86.5,145.5C 92.2469,130.672 99.0802,116.339 107,102.5C 113.397,93.2688 121.23,85.6021 130.5,79.5 Z"/></g>
<g><path style="opacity:1" fill="#2a160c" d="M 392.5,79.5 C 392.611,80.1174 392.944,80.6174 393.5,81C 400.741,82.9481 408.074,84.4481 415.5,85.5C 420.341,88.6668 425.674,90.0001 431.5,89.5C 431.33,90.8221 431.663,91.9887 432.5,93C 435.42,94.2345 438.42,95.2345 441.5,96C 441.167,96.3333 440.833,96.6667 440.5,97C 442.74,97.977 445.073,98.477 447.5,98.5C 447.5,99.5 447.5,100.5 447.5,101.5C 448.873,101.343 450.207,101.51 451.5,102C 453.108,104.609 455.441,105.942 458.5,106C 463.858,113.392 470.191,119.059 477.5,123C 477.167,123.333 476.833,123.667 476.5,124C 477.448,124.483 478.448,124.649 479.5,124.5C 479.351,125.552 479.517,126.552 480,127.5C 482.119,127.507 483.953,128.674 485.5,131C 485.167,131.333 484.833,131.667 484.5,132C 485.833,133.667 487.167,135.333 488.5,137C 490.342,136.932 492.009,137.099 493.5,137.5C 493.69,141.402 494.69,145.069 496.5,148.5C 490.536,141.201 484.203,134.201 477.5,127.5C 454.86,103.676 427.193,89.0094 394.5,83.5C 330.924,71.3584 277.591,89.3584 234.5,137.5C 234.5,137.833 234.5,138.167 234.5,138.5C 232.871,139.625 231.371,140.959 230,142.5C 227.058,147.406 223.891,152.072 220.5,156.5C 220.294,154.451 219.461,154.117 218,155.5C 215.969,161.575 212.469,166.575 207.5,170.5C 207.33,167.509 208.663,165.509 211.5,164.5C 212.034,162.386 213.034,160.552 214.5,159C 214.167,158.667 213.833,158.333 213.5,158C 214.834,152.665 218.001,148.832 223,146.5C 223.738,143.788 223.071,141.455 221,139.5C 220.667,140.167 220.333,140.833 220,141.5C 218.586,140.587 217.086,140.587 215.5,141.5C 216.946,136.939 219.613,133.272 223.5,130.5C 221.169,142.969 223.669,144.303 231,134.5C 231.333,135.167 231.667,135.833 232,136.5C 233.167,135.333 234.333,134.167 235.5,133C 235.043,132.586 234.709,132.086 234.5,131.5C 236.509,130.154 238.509,128.82 240.5,127.5C 242.613,123.05 245.946,120.05 250.5,118.5C 250.343,117.127 250.51,115.793 251,114.5C 252.049,115.517 253.216,115.684 254.5,115C 255.987,112.263 258.321,110.597 261.5,110C 260.742,108.636 261.242,107.469 263,106.5C 264.84,107.833 265.34,107.666 264.5,106C 265.357,105.311 266.023,104.478 266.5,103.5C 265.576,100.454 263.742,98.1206 261,96.5C 259.56,100.01 257.227,101.677 254,101.5C 252.991,103.025 252.491,104.692 252.5,106.5C 251.448,106.649 250.448,106.483 249.5,106C 251.854,103.31 251.187,102.81 247.5,104.5C 250.576,100.793 254.242,97.7931 258.5,95.5C 258.435,95.9382 258.601,96.2716 259,96.5C 262.761,95.6495 265.761,93.6495 268,90.5C 268.333,90.8333 268.667,91.1667 269,91.5C 269.374,90.5838 269.874,89.7504 270.5,89C 273.629,87.6012 276.629,85.9345 279.5,84C 284.269,83.1264 288.602,81.293 292.5,78.5C 293.183,78.8627 293.85,79.1961 294.5,79.5C 293.025,81.4095 291.025,82.5762 288.5,83C 289.833,83.3333 291.167,83.6667 292.5,84C 287.634,85.6626 282.301,86.8293 276.5,87.5C 276.167,90.5 274.5,92.1667 271.5,92.5C 271.5,93.5 271.5,94.5 271.5,95.5C 269.833,95.5 268.167,95.5 266.5,95.5C 266.5,96.5 266.5,97.5 266.5,98.5C 271.652,98.1363 276.652,97.1363 281.5,95.5C 281.33,94.1779 281.663,93.0113 282.5,92C 285.553,91.8214 288.553,91.3214 291.5,90.5C 291.865,89.0981 292.699,88.0981 294,87.5C 297.047,86.249 300.047,86.249 303,87.5C 303.494,85.8659 303.66,84.1992 303.5,82.5C 309.882,80.2306 316.548,79.0639 323.5,79C 325.061,78.6824 326.228,77.8491 327,76.5C 327.333,76.8333 327.667,77.1667 328,77.5C 333.745,76.5069 339.578,75.8402 345.5,75.5C 361.268,76.134 376.935,77.4674 392.5,79.5 Z"/></g>
<g><path style="opacity:1" fill="#ecedd8" d="M 287.5,116.5 C 293.868,116.721 296.368,120.054 295,126.5C 289.121,132.526 284.954,131.693 282.5,124C 282.782,120.556 284.448,118.056 287.5,116.5 Z"/></g>
<g><path style="opacity:1" fill="#f2eed9" d="M 387.5,112.5 C 393.849,113.027 396.016,116.361 394,122.5C 388.342,126.763 384.509,125.43 382.5,118.5C 382.76,115.246 384.427,113.246 387.5,112.5 Z"/></g>
<g><path style="opacity:1" fill="#f4edd4" d="M 394.5,83.5 C 427.193,89.0094 454.86,103.676 477.5,127.5C 475.133,126.836 473.133,125.503 471.5,123.5C 469.674,123.92 467.674,123.92 465.5,123.5C 464.833,123.5 464.167,123.5 463.5,123.5C 463.5,122.5 463.5,121.5 463.5,120.5C 459.594,119.39 455.594,118.557 451.5,118C 446.815,114.641 442.148,111.308 437.5,108C 434.949,107.998 432.949,107.164 431.5,105.5C 434.553,105.681 437.553,105.848 440.5,106C 437.833,105.333 437.833,104.667 440.5,104C 439.062,103.781 437.729,103.281 436.5,102.5C 435.359,101.575 435.359,100.741 436.5,100C 435.004,99.4926 433.837,99.9926 433,101.5C 431.681,99.7505 431.181,97.7505 431.5,95.5C 428.15,95.665 424.817,95.4983 421.5,95C 419.844,93.1706 417.844,91.8372 415.5,91C 408.589,88.0806 401.589,85.5806 394.5,83.5 Z"/></g>
<g><path style="opacity:1" fill="#e0e8de" d="M 366.5,105.5 C 368.861,105.674 371.194,106.007 373.5,106.5C 373.336,112.488 370.836,113.821 366,110.5C 365.616,108.803 365.782,107.137 366.5,105.5 Z"/></g>
<g><path style="opacity:1" fill="#9eb6ba" d="M 428.5,108.5 C 425.413,109.686 422.747,108.853 420.5,106C 412.442,102.917 404.108,100.584 395.5,99C 388.725,98.1267 382.059,98.6267 375.5,100.5C 372.937,100.263 372.937,99.763 375.5,99C 370.816,98.5386 366.149,98.7053 361.5,99.5C 361.59,102.152 360.924,104.485 359.5,106.5C 359.82,101.425 357.486,99.5915 352.5,101C 351.409,103.064 351.242,105.231 352,107.5C 352.671,108.252 353.504,108.586 354.5,108.5C 354.33,109.822 354.663,110.989 355.5,112C 354.376,112.249 353.376,112.749 352.5,113.5C 353.242,115.35 354.242,116.016 355.5,115.5C 354.5,116.333 353.5,117.167 352.5,118C 353.517,119.049 353.684,120.216 353,121.5C 352.315,118.025 350.815,115.025 348.5,112.5C 349.325,111.614 350.325,111.281 351.5,111.5C 351.5,110.5 351.5,109.5 351.5,108.5C 349.284,108.725 347.617,107.892 346.5,106C 347.167,104 347.833,102 348.5,100C 345.685,98.2787 342.685,97.6121 339.5,98C 340.689,100.878 342.022,103.712 343.5,106.5C 342.373,109.74 341.04,112.74 339.5,115.5C 337.226,115.715 335.059,116.382 333,117.5C 327.973,117.429 327.14,115.596 330.5,112C 326.787,110.309 325.621,107.475 327,103.5C 328.918,102.458 330.751,101.292 332.5,100C 330.567,99.7489 328.734,99.2489 327,98.5C 319.194,100.935 311.361,103.269 303.5,105.5C 303.5,106.5 303.5,107.5 303.5,108.5C 298.506,108.352 293.839,109.352 289.5,111.5C 323.521,93.2472 359.521,88.7472 397.5,98C 408.425,100.252 418.759,103.752 428.5,108.5 Z"/></g>
<g><path style="opacity:1" fill="#f1efd6" d="M 332.5,101.5 C 339.334,100.184 341.834,102.851 340,109.5C 337.162,113.035 333.995,113.368 330.5,110.5C 328.927,106.915 329.594,103.915 332.5,101.5 Z"/></g>
<g><path style="opacity:1" fill="#f4ecd1" d="M 394.5,83.5 C 391.041,83.5313 387.708,84.198 384.5,85.5C 383.614,84.675 383.281,83.675 383.5,82.5C 372.836,81.3207 362.169,81.3207 351.5,82.5C 348.964,83.6719 346.464,84.6719 344,85.5C 334.209,85.5323 324.876,87.8656 316,92.5C 314.769,91.8922 313.436,91.5589 312,91.5C 305.722,92.8547 299.556,94.3547 293.5,96C 293.833,97.6667 294.167,99.3333 294.5,101C 290.862,101.452 288.528,103.286 287.5,106.5C 289.167,106.5 290.833,106.5 292.5,106.5C 291.22,107.931 289.553,108.598 287.5,108.5C 287.5,109.5 287.5,110.5 287.5,111.5C 285.712,111.215 284.045,111.548 282.5,112.5C 275.776,117.112 268.609,120.778 261,123.5C 260.333,122.833 259.667,122.167 259,121.5C 258.259,122.641 257.425,122.641 256.5,121.5C 254.417,123.14 254.084,125.14 255.5,127.5C 253.473,127.338 251.473,127.505 249.5,128C 248.809,129.067 248.309,130.234 248,131.5C 247.667,130.833 247.333,130.167 247,129.5C 246.289,131.367 246.789,132.867 248.5,134C 246.212,134.822 243.878,135.489 241.5,136C 240.333,136.5 239.5,137.333 239,138.5C 238.667,137.833 238.333,137.167 238,136.5C 236.989,137.337 235.822,137.67 234.5,137.5C 277.591,89.3584 330.924,71.3584 394.5,83.5 Z"/></g>
<g><path style="opacity:1" fill="#faefcf" d="M 394.5,83.5 C 401.589,85.5806 408.589,88.0806 415.5,91C 417.844,91.8372 419.844,93.1706 421.5,95C 424.817,95.4983 428.15,95.665 431.5,95.5C 431.181,97.7505 431.681,99.7505 433,101.5C 433.837,99.9926 435.004,99.4926 436.5,100C 435.359,100.741 435.359,101.575 436.5,102.5C 437.729,103.281 439.062,103.781 440.5,104C 437.833,104.667 437.833,105.333 440.5,106C 437.553,105.848 434.553,105.681 431.5,105.5C 428.898,104.339 426.231,103.172 423.5,102C 415.631,99.7928 407.631,98.2928 399.5,97.5C 399.5,96.1667 399.5,94.8333 399.5,93.5C 380.894,91.5164 362.227,91.0164 343.5,92C 339.232,92.0306 335.232,93.0306 331.5,95C 326.511,95.4993 321.511,95.6659 316.5,95.5C 316.67,96.8221 316.337,97.9887 315.5,99C 312.167,99.3333 308.833,99.6667 305.5,100C 304.027,100.71 303.36,101.876 303.5,103.5C 299.777,104.297 296.11,105.297 292.5,106.5C 290.833,106.5 289.167,106.5 287.5,106.5C 288.528,103.286 290.862,101.452 294.5,101C 294.167,99.3333 293.833,97.6667 293.5,96C 299.556,94.3547 305.722,92.8547 312,91.5C 313.436,91.5589 314.769,91.8922 316,92.5C 324.876,87.8656 334.209,85.5323 344,85.5C 346.464,84.6719 348.964,83.6719 351.5,82.5C 362.169,81.3207 372.836,81.3207 383.5,82.5C 383.281,83.675 383.614,84.675 384.5,85.5C 387.708,84.198 391.041,83.5313 394.5,83.5 Z"/></g>
<g><path style="opacity:1" fill="#eff2e0" d="M 431.5,105.5 C 432.949,107.164 434.949,107.998 437.5,108C 442.148,111.308 446.815,114.641 451.5,118C 455.594,118.557 459.594,119.39 463.5,120.5C 463.5,121.5 463.5,122.5 463.5,123.5C 459.969,122.243 456.302,121.409 452.5,121C 445.29,115.284 437.29,111.118 428.5,108.5C 418.759,103.752 408.425,100.252 397.5,98C 359.521,88.7472 323.521,93.2472 289.5,111.5C 288.833,111.5 288.167,111.5 287.5,111.5C 287.5,110.5 287.5,109.5 287.5,108.5C 289.553,108.598 291.22,107.931 292.5,106.5C 296.11,105.297 299.777,104.297 303.5,103.5C 303.36,101.876 304.027,100.71 305.5,100C 308.833,99.6667 312.167,99.3333 315.5,99C 316.337,97.9887 316.67,96.8221 316.5,95.5C 321.511,95.6659 326.511,95.4993 331.5,95C 335.232,93.0306 339.232,92.0306 343.5,92C 362.227,91.0164 380.894,91.5164 399.5,93.5C 399.5,94.8333 399.5,96.1667 399.5,97.5C 407.631,98.2928 415.631,99.7928 423.5,102C 426.231,103.172 428.898,104.339 431.5,105.5 Z"/></g>
<g><path style="opacity:1" fill="#ebefdb" d="M 359.5,106.5 C 358.18,107.942 356.514,108.608 354.5,108.5C 353.504,108.586 352.671,108.252 352,107.5C 351.242,105.231 351.409,103.064 352.5,101C 357.486,99.5915 359.82,101.425 359.5,106.5 Z"/></g>
<g><path style="opacity:1" fill="#d9dbda" d="M 465.5,123.5 C 467.674,123.92 469.674,123.92 471.5,123.5C 473.133,125.503 475.133,126.836 477.5,127.5C 484.203,134.201 490.536,141.201 496.5,148.5C 498.5,152.5 500.5,156.5 502.5,160.5C 494.777,150.601 486.443,141.101 477.5,132C 476.255,131.209 474.922,130.709 473.5,130.5C 471.471,127.473 468.804,125.14 465.5,123.5 Z"/></g>
<g><path style="opacity:1" fill="#f6f3d6" d="M 287.5,111.5 C 258.176,128.17 236.843,152.17 223.5,183.5C 221.657,185.853 220.323,188.52 219.5,191.5C 217.907,192.348 216.74,193.681 216,195.5C 214.18,201.11 212.514,206.777 211,212.5C 210.385,214.116 209.385,215.449 208,216.5C 207.5,209.842 207.334,203.175 207.5,196.5C 210.685,196.278 211.685,194.778 210.5,192C 211.448,191.517 212.448,191.351 213.5,191.5C 214.025,186.269 214.692,181.269 215.5,176.5C 218.086,175.52 220.753,175.187 223.5,175.5C 223.5,174.167 223.5,172.833 223.5,171.5C 222.178,171.33 221.011,171.663 220,172.5C 219.833,171.833 219.667,171.167 219.5,170.5C 221.303,168.041 222.637,165.374 223.5,162.5C 225.638,162.297 227.305,161.297 228.5,159.5C 229.412,155.867 230.079,152.2 230.5,148.5C 233.238,149.035 235.072,148.035 236,145.5C 236.346,143.782 236.846,142.115 237.5,140.5C 236.218,140.912 235.218,140.246 234.5,138.5C 234.5,138.167 234.5,137.833 234.5,137.5C 235.822,137.67 236.989,137.337 238,136.5C 238.333,137.167 238.667,137.833 239,138.5C 239.5,137.333 240.333,136.5 241.5,136C 243.878,135.489 246.212,134.822 248.5,134C 246.789,132.867 246.289,131.367 247,129.5C 247.333,130.167 247.667,130.833 248,131.5C 248.309,130.234 248.809,129.067 249.5,128C 251.473,127.505 253.473,127.338 255.5,127.5C 254.084,125.14 254.417,123.14 256.5,121.5C 257.425,122.641 258.259,122.641 259,121.5C 259.667,122.167 260.333,122.833 261,123.5C 268.609,120.778 275.776,117.112 282.5,112.5C 284.045,111.548 285.712,111.215 287.5,111.5 Z"/></g>
<g><path style="opacity:1" fill="#e7efe2" d="M 261.5,135.5 C 267.335,135.396 269.335,138.063 267.5,143.5C 262.96,149.077 259.294,148.743 256.5,142.5C 257.414,139.592 259.081,137.259 261.5,135.5 Z"/></g>
<g><path style="opacity:1" fill="#e7e3db" d="M 619.5,130.5 C 620.721,131.028 621.887,131.695 623,132.5C 623.36,134.421 624.194,136.088 625.5,137.5C 627.244,135.574 628.244,133.24 628.5,130.5C 630.484,134.761 632.484,139.094 634.5,143.5C 637.325,151.321 640.325,158.988 643.5,166.5C 644.371,169.112 645.037,171.779 645.5,174.5C 645.631,175.239 645.464,175.906 645,176.5C 637.279,160.725 628.779,145.391 619.5,130.5 Z"/></g>
<g><path style="opacity:1" fill="#311609" d="M 129.5,68.5 C 128.156,70.0348 126.489,71.3681 124.5,72.5C 123.914,72.2907 123.414,71.9574 123,71.5C 119.217,73.3101 116.217,75.9768 114,79.5C 113.73,80.9323 114.396,81.9323 116,82.5C 116.745,81.0096 117.912,80.0096 119.5,79.5C 120.815,78.846 121.815,78.846 122.5,79.5C 121.766,80.7079 121.433,82.0413 121.5,83.5C 118.956,83.1043 116.789,83.771 115,85.5C 114.667,85.1667 114.333,84.8333 114,84.5C 112.882,86.7654 112.049,89.0987 111.5,91.5C 109.857,91.4802 108.524,92.1468 107.5,93.5C 106.77,95.3413 106.103,97.1746 105.5,99C 105.833,99.3333 106.167,99.6667 106.5,100C 102.311,105.393 99.3108,111.06 97.5,117C 95.4599,120.914 93.2933,124.748 91,128.5C 90.1435,133.443 87.9768,137.61 84.5,141C 85.0989,142.622 85.7656,144.122 86.5,145.5C 86.5,146.167 86.1667,146.5 85.5,146.5C 82.8384,148.116 81.1717,150.116 80.5,152.5C 80.7093,153.086 81.0426,153.586 81.5,154C 77.3607,165.865 73.194,177.365 69,188.5C 68.5034,190.81 68.3367,193.143 68.5,195.5C 67.1001,196.1 66.1001,197.1 65.5,198.5C 66.1189,190.353 68.1189,182.686 71.5,175.5C 69.0582,175.881 68.3915,175.214 69.5,173.5C 68.8108,171.556 68.3108,169.556 68,167.5C 67.6667,167.833 67.3333,168.167 67,168.5C 66.1343,172.683 64.801,176.683 63,180.5C 62.6667,180.167 62.3333,179.833 62,179.5C 61.2797,181.112 61.4464,182.612 62.5,184C 60.9544,185.44 60.121,187.273 60,189.5C 59.2904,190.973 58.1238,191.64 56.5,191.5C 60.8288,175.836 65.9954,160.836 72,146.5C 72.7796,144.613 72.6129,142.946 71.5,141.5C 77.4922,123.847 85.8255,107.514 96.5,92.5C 103.498,84.6941 110.498,77.5274 117.5,71C 119.618,70.7398 121.284,69.7398 122.5,68C 125.485,67.1324 128.485,66.7991 131.5,67C 130.584,67.2784 129.918,67.7784 129.5,68.5 Z"/></g>
<g><path style="opacity:1" fill="#dee4df" d="M 91.5,147.5 C 89.8333,151.5 88.1667,155.5 86.5,159.5C 81.026,167.451 76.8594,176.117 74,185.5C 73.31,186.738 72.81,186.738 72.5,185.5C 75.3977,174.471 79.0643,163.804 83.5,153.5C 84.1499,153.804 84.8165,154.137 85.5,154.5C 86.5551,151.318 88.5551,148.984 91.5,147.5 Z"/></g>
<g><path style="opacity:1" fill="#211616" d="M 496.5,148.5 C 498.074,148.937 499.241,149.937 500,151.5C 501.728,156.985 504.895,161.319 509.5,164.5C 510.167,168.167 510.833,171.833 511.5,175.5C 508.752,170.334 505.752,165.334 502.5,160.5C 500.5,156.5 498.5,152.5 496.5,148.5 Z"/></g>
<g><path style="opacity:1" fill="#1b100d" d="M 85.5,146.5 C 84.5448,148.746 83.8782,151.079 83.5,153.5C 79.0643,163.804 75.3977,174.471 72.5,185.5C 71.3654,188.902 70.0321,192.235 68.5,195.5C 68.3367,193.143 68.5034,190.81 69,188.5C 73.194,177.365 77.3607,165.865 81.5,154C 81.0426,153.586 80.7093,153.086 80.5,152.5C 81.1717,150.116 82.8384,148.116 85.5,146.5 Z"/></g>
<g><path style="opacity:1" fill="#6c8ca1" d="M 473.5,130.5 C 474.922,130.709 476.255,131.209 477.5,132C 486.443,141.101 494.777,150.601 502.5,160.5C 505.752,165.334 508.752,170.334 511.5,175.5C 521.546,201.223 527.713,227.89 530,255.5C 530.5,275.164 530.667,294.831 530.5,314.5C 526.5,314.5 522.5,314.5 518.5,314.5C 519.625,281.143 516.791,248.143 510,215.5C 502.189,182.704 486.689,154.204 463.5,130C 469.421,130.367 474.421,132.867 478.5,137.5C 479.506,137.062 479.506,136.396 478.5,135.5C 476.43,134.097 474.763,132.43 473.5,130.5 Z"/></g>
<g><path style="opacity:1" fill="#341405" d="M 646.5,133.5 C 647.674,134.514 648.34,135.847 648.5,137.5C 647.883,137.389 647.383,137.056 647,136.5C 646.186,138.902 646.353,141.235 647.5,143.5C 649,145.833 650.5,148.167 652,150.5C 653.922,156.927 656.255,163.26 659,169.5C 659.684,170.784 659.517,171.951 658.5,173C 662.598,180.192 665.098,188.026 666,196.5C 667,198.5 668,200.5 669,202.5C 669.925,209.744 671.592,216.744 674,223.5C 675.05,228.448 675.55,233.448 675.5,238.5C 676.768,244.003 676.768,249.503 675.5,255C 677.716,257.502 678.716,260.502 678.5,264C 678.085,274.506 677.752,285.006 677.5,295.5C 678.527,301.807 679.193,308.141 679.5,314.5C 676.167,314.5 672.833,314.5 669.5,314.5C 669.667,299.163 669.5,283.83 669,268.5C 666.903,251.389 664.237,234.389 661,217.5C 659.768,213.939 658.268,210.606 656.5,207.5C 653.752,193.505 649.919,179.838 645,166.5C 644.31,165.262 643.81,165.262 643.5,166.5C 640.325,158.988 637.325,151.321 634.5,143.5C 635.043,143.44 635.376,143.107 635.5,142.5C 628.295,124.417 619.295,107.417 608.5,91.5C 607.692,89.5767 607.192,87.5767 607,85.5C 606.282,86.4506 605.449,86.6172 604.5,86C 602.321,83.4891 599.821,81.3224 597,79.5C 596.586,79.9574 596.086,80.2907 595.5,80.5C 583.753,71.5839 570.42,68.0839 555.5,70C 550.792,70.0222 546.792,71.6889 543.5,75C 543.728,75.3988 544.062,75.5654 544.5,75.5C 544.158,76.3382 543.492,76.6716 542.5,76.5C 541.054,75.3871 539.387,75.2204 537.5,76C 526.858,79.4316 518.025,85.9316 511,95.5C 509.475,95.8881 507.808,95.8881 506,95.5C 505.667,96.1667 505.333,96.8333 505,97.5C 503.691,95.1088 502.691,95.1088 502,97.5C 500.905,92.6098 500.238,92.6098 500,97.5C 499.333,98.8333 498.667,98.8333 498,97.5C 497.667,98.1667 497.333,98.8333 497,99.5C 496.51,98.2068 496.343,96.8734 496.5,95.5C 498.47,93.7434 500.637,92.0767 503,90.5C 503.772,90.6448 504.439,90.9781 505,91.5C 505.833,90 507,88.8333 508.5,88C 507.72,86.927 507.887,85.7604 509,84.5C 509.333,84.8333 509.667,85.1667 510,85.5C 511.487,84.7471 511.654,83.9138 510.5,83C 513.063,80.7186 516.063,79.5519 519.5,79.5C 519.351,78.448 519.517,77.448 520,76.5C 521.073,77.2797 522.24,77.113 523.5,76C 523.167,75.6667 522.833,75.3333 522.5,75C 523.646,74.3551 524.646,73.5217 525.5,72.5C 525.833,73.1667 526.167,73.8333 526.5,74.5C 529.35,70.1506 533.016,66.6506 537.5,64C 545.215,63.9988 552.715,62.8322 560,60.5C 565.33,61.1039 570.497,62.1039 575.5,63.5C 575.351,64.552 575.517,65.552 576,66.5C 580.811,64.1678 585.978,63.1678 591.5,63.5C 591.5,65.1667 591.5,66.8333 591.5,68.5C 592.873,68.3433 594.207,68.51 595.5,69C 600.932,71.9233 605.266,75.9233 608.5,81C 611.927,82.796 615.094,84.9627 618,87.5C 620.342,90.2978 622.176,93.4645 623.5,97C 623.095,97.9454 622.428,98.6121 621.5,99C 623.609,100.141 625.442,101.641 627,103.5C 627.997,107.918 630.497,111.085 634.5,113C 634.043,113.414 633.709,113.914 633.5,114.5C 634.934,116.22 635.767,118.22 636,120.5C 636.333,119.5 636.667,118.5 637,117.5C 638.526,121.833 641.36,127.167 645.5,133.5C 645.291,134.086 644.957,134.586 644.5,135C 645.816,135.528 646.483,135.028 646.5,133.5 Z"/></g>
<g><path style="opacity:1" fill="#21140f" d="M 648.5,137.5 C 662.724,170.852 672.724,205.518 678.5,241.5C 678.631,242.239 678.464,242.906 678,243.5C 677.901,241.347 677.067,239.681 675.5,238.5C 675.55,233.448 675.05,228.448 674,223.5C 671.592,216.744 669.925,209.744 669,202.5C 668,200.5 667,198.5 666,196.5C 665.098,188.026 662.598,180.192 658.5,173C 659.517,171.951 659.684,170.784 659,169.5C 656.255,163.26 653.922,156.927 652,150.5C 650.5,148.167 649,145.833 647.5,143.5C 646.353,141.235 646.186,138.902 647,136.5C 647.383,137.056 647.883,137.389 648.5,137.5 Z"/></g>
<g><path style="opacity:1" fill="#f6ecd7" d="M 687.5,314.5 C 686.167,314.5 684.833,314.5 683.5,314.5C 684.412,291.009 683.079,267.676 679.5,244.5C 679.737,243.209 679.404,242.209 678.5,241.5C 672.724,205.518 662.724,170.852 648.5,137.5C 648.34,135.847 647.674,134.514 646.5,133.5C 639.255,114.339 629.422,96.672 617,80.5C 593.858,56.2849 566.691,50.4515 535.5,63C 519.6,71.4023 505.6,82.2356 493.5,95.5C 488.56,98.7703 484.227,102.77 480.5,107.5C 476.518,104.524 472.518,101.524 468.5,98.5C 450.543,85.3547 430.876,75.688 409.5,69.5C 410.524,68.862 411.524,68.1953 412.5,67.5C 418.832,68.6665 425.165,69.8331 431.5,71C 436.575,76.55 442.908,79.7167 450.5,80.5C 451.641,81.4255 451.641,82.2588 450.5,83C 453.121,83.9385 455.788,84.7719 458.5,85.5C 459.37,87.5259 460.87,88.8592 463,89.5C 463.483,90.448 463.649,91.448 463.5,92.5C 465.484,92.3832 467.15,93.0499 468.5,94.5C 469.086,94.2907 469.586,93.9574 470,93.5C 470.967,94.6776 471.467,96.011 471.5,97.5C 475.253,99.8042 479.086,101.137 483,101.5C 483.813,99.5643 484.313,97.5643 484.5,95.5C 488.948,92.0509 493.781,89.0509 499,86.5C 500.202,84.3225 500.702,81.9892 500.5,79.5C 502.527,79.6621 504.527,79.4955 506.5,79C 505.5,78.6667 504.5,78.3333 503.5,78C 506.932,77.8839 509.932,76.7172 512.5,74.5C 513.086,74.7093 513.586,75.0426 514,75.5C 515.368,73.973 515.868,72.473 515.5,71C 518.999,68.6879 522.665,66.5213 526.5,64.5C 527.773,61.5593 529.773,59.226 532.5,57.5C 535.729,56.9373 539.062,56.9373 542.5,57.5C 549.694,55.5191 557.027,54.1858 564.5,53.5C 577.247,54.6578 589.58,56.6578 601.5,59.5C 601.854,61.5412 601.854,63.3745 601.5,65C 604.5,66 607.5,67 610.5,68C 611.697,71.7683 614.03,74.435 617.5,76C 620.019,80.1823 623.519,83.349 628,85.5C 628.346,87.2182 628.846,88.8849 629.5,90.5C 631.5,91.3333 633.5,92.1667 635.5,93C 635.043,93.414 634.709,93.914 634.5,94.5C 636.045,95.4519 637.712,95.7852 639.5,95.5C 639.5,99.5 639.5,103.5 639.5,107.5C 641.915,107.373 644.249,107.207 646.5,107C 640.863,109.798 641.197,111.632 647.5,112.5C 647.295,115.013 647.128,117.68 647,120.5C 648.03,122.776 649.53,123.443 651.5,122.5C 652.452,124.045 652.785,125.712 652.5,127.5C 653.5,127.5 654.5,127.5 655.5,127.5C 655.334,134.508 655.5,141.508 656,148.5C 656.974,146.122 657.641,146.456 658,149.5C 659.147,148.542 660.147,148.875 661,150.5C 663.19,155.481 664.69,160.647 665.5,166C 665.167,166.333 664.833,166.667 664.5,167C 666.653,168.891 667.32,171.057 666.5,173.5C 667.934,175.22 668.767,177.22 669,179.5C 669.967,178.322 670.467,176.989 670.5,175.5C 671.022,179.035 672.022,182.368 673.5,185.5C 672.833,186.167 672.167,186.833 671.5,187.5C 672.529,187.296 673.529,187.796 674.5,189C 673.018,192.906 673.851,196.74 677,200.5C 676.99,205.167 678.49,209.167 681.5,212.5C 681.013,213.446 680.68,214.446 680.5,215.5C 680.737,218.063 681.237,218.063 682,215.5C 682.54,217.135 682.04,218.468 680.5,219.5C 681.922,221.965 682.922,224.631 683.5,227.5C 683.498,225.259 683.832,222.926 684.5,220.5C 685.598,224.361 686.431,224.361 687,220.5C 687.35,224.533 687.517,228.367 687.5,232C 686.975,232.692 686.308,233.192 685.5,233.5C 684.811,231.662 684.478,229.995 684.5,228.5C 683.096,231.403 683.429,234.07 685.5,236.5C 682.749,239.055 683.416,240.055 687.5,239.5C 687.5,244.833 687.5,250.167 687.5,255.5C 688.552,255.351 689.552,255.517 690.5,256C 690.5,257.667 690.5,259.333 690.5,261C 689.833,261.333 689.167,261.667 688.5,262C 688.589,267.622 688.589,273.456 688.5,279.5C 689.675,279.281 690.675,279.614 691.5,280.5C 690.923,282.55 689.59,283.55 687.5,283.5C 687.969,274.664 687.469,265.997 686,257.5C 686.602,266.891 686.435,275.891 685.5,284.5C 687.344,294.397 688.011,304.397 687.5,314.5 Z"/></g>
<g><path style="opacity:1" fill="#f8efcf" d="M 543.5,95.5 C 537.906,96.2031 533.24,98.7031 529.5,103C 524.799,104.111 520.299,105.611 516,107.5C 515.86,105.744 516.36,104.078 517.5,102.5C 520.187,101.902 522.354,100.569 524,98.5C 524.333,98.8333 524.667,99.1667 525,99.5C 524.339,97.9652 524.006,96.2985 524,94.5C 526.465,96.4253 529.132,96.4253 532,94.5C 532.311,93.2575 531.811,92.2575 530.5,91.5C 530.977,90.069 531.643,88.7357 532.5,87.5C 533.425,86.3595 534.259,86.3595 535,87.5C 536.66,84.6643 539.16,83.1643 542.5,83C 541.542,81.8525 541.875,80.8525 543.5,80C 545.134,79.5065 546.801,79.3398 548.5,79.5C 548.5,78.5 548.5,77.5 548.5,76.5C 553.183,75.9978 557.85,75.3311 562.5,74.5C 566.804,75.2095 571.137,75.7095 575.5,76C 576.421,77.756 577.588,77.9227 579,76.5C 584.214,79.5582 589.714,81.8915 595.5,83.5C 595.351,84.552 595.517,85.552 596,86.5C 598.13,87.1408 599.63,88.4741 600.5,90.5C 593.739,94.0953 594.406,96.0953 602.5,96.5C 603.015,98.2251 603.682,99.8917 604.5,101.5C 605.396,100.494 606.062,100.494 606.5,101.5C 605.754,102.736 605.421,104.07 605.5,105.5C 603.801,105.66 602.134,105.494 600.5,105C 584.122,91.4868 565.455,87.3202 544.5,92.5C 543.614,93.325 543.281,94.325 543.5,95.5 Z"/></g>
<g><path style="opacity:1" fill="#1b1516" d="M 229.5,117.5 C 229.56,116.957 229.893,116.624 230.5,116.5C 231.614,117.723 231.781,119.056 231,120.5C 229.184,124.521 226.684,127.855 223.5,130.5C 219.613,133.272 216.946,136.939 215.5,141.5C 213.372,146.564 209.872,151.23 205,155.5C 203.516,159.731 201.516,163.731 199,167.5C 197.348,172.045 196.182,176.711 195.5,181.5C 194.52,182.981 193.353,184.315 192,185.5C 184.162,209.178 179.496,233.511 178,258.5C 177.5,277.164 177.333,295.83 177.5,314.5C 176.833,314.5 176.167,314.5 175.5,314.5C 174.645,286.372 175.978,258.372 179.5,230.5C 183.88,193.651 197.214,160.651 219.5,131.5C 222.418,127.076 225.918,123.076 230,119.5C 230.692,118.563 230.525,117.897 229.5,117.5 Z"/></g>
<g><path style="opacity:1" fill="#191414" d="M 502.5,132.5 C 508.046,138.568 512.879,145.235 517,152.5C 530.153,177.507 538.987,203.841 543.5,231.5C 546.177,259.09 547.177,286.757 546.5,314.5C 545.5,314.5 544.5,314.5 543.5,314.5C 546.52,273.852 543.02,233.852 533,194.5C 529.239,186.464 526.239,178.131 524,169.5C 523.148,168.429 522.315,167.429 521.5,166.5C 519.558,162.199 517.558,157.865 515.5,153.5C 510.685,146.71 506.352,139.71 502.5,132.5 Z"/></g>
<g><path style="opacity:1" fill="#130d10" d="M 656.5,207.5 C 654.833,202.833 653.167,198.167 651.5,193.5C 649.87,186.949 647.87,180.616 645.5,174.5C 645.037,171.779 644.371,169.112 643.5,166.5C 643.81,165.262 644.31,165.262 645,166.5C 649.919,179.838 653.752,193.505 656.5,207.5 Z"/></g>
<g><path style="opacity:1" fill="#221712" d="M 71.5,141.5 C 72.6129,142.946 72.7796,144.613 72,146.5C 65.9954,160.836 60.8288,175.836 56.5,191.5C 54.4057,197.372 52.5723,203.372 51,209.5C 49.1745,218.475 47.1745,227.475 45,236.5C 44.5357,235.906 44.369,235.239 44.5,234.5C 47.4382,214.414 52.1048,194.748 58.5,175.5C 62.4376,164.021 66.7709,152.688 71.5,141.5 Z"/></g>
<g><path style="opacity:1" fill="#f3ebd7" d="M 234.5,138.5 C 235.218,140.246 236.218,140.912 237.5,140.5C 236.846,142.115 236.346,143.782 236,145.5C 235.072,148.035 233.238,149.035 230.5,148.5C 230.079,152.2 229.412,155.867 228.5,159.5C 227.305,161.297 225.638,162.297 223.5,162.5C 222.637,165.374 221.303,168.041 219.5,170.5C 219.667,171.167 219.833,171.833 220,172.5C 221.011,171.663 222.178,171.33 223.5,171.5C 223.5,172.833 223.5,174.167 223.5,175.5C 220.753,175.187 218.086,175.52 215.5,176.5C 214.692,181.269 214.025,186.269 213.5,191.5C 212.448,191.351 211.448,191.517 210.5,192C 211.685,194.778 210.685,196.278 207.5,196.5C 207.334,203.175 207.5,209.842 208,216.5C 209.385,215.449 210.385,214.116 211,212.5C 212.514,206.777 214.18,201.11 216,195.5C 216.74,193.681 217.907,192.348 219.5,191.5C 214.559,203.951 210.559,216.617 207.5,229.5C 207.848,223.911 206.848,218.578 204.5,213.5C 203.015,216.179 202.348,219.513 202.5,223.5C 201.5,223.5 200.5,223.5 199.5,223.5C 196.646,233.277 195.146,243.277 195,253.5C 194.79,251.942 194.29,250.609 193.5,249.5C 195.526,216.384 204.526,185.384 220.5,156.5C 223.891,152.072 227.058,147.406 230,142.5C 231.371,140.959 232.871,139.625 234.5,138.5 Z"/></g>
<g><path style="opacity:1" fill="#191216" d="M 511.5,175.5 C 512.497,175.47 513.164,175.97 513.5,177C 530.013,221.249 536.346,267.082 532.5,314.5C 531.833,314.5 531.167,314.5 530.5,314.5C 530.667,294.831 530.5,275.164 530,255.5C 527.713,227.89 521.546,201.223 511.5,175.5 Z"/></g>
<g><path style="opacity:1" fill="#201107" d="M 220.5,156.5 C 204.526,185.384 195.526,216.384 193.5,249.5C 191.719,271.069 191.052,292.735 191.5,314.5C 190.833,314.5 190.167,314.5 189.5,314.5C 189.743,291.313 189.743,268.146 189.5,245C 190.765,239.774 192.265,234.607 194,229.5C 194.18,216.041 197.347,203.374 203.5,191.5C 202.529,190.038 202.862,188.705 204.5,187.5C 203.833,187.167 203.167,186.833 202.5,186.5C 206.32,181.899 207.987,176.565 207.5,170.5C 212.469,166.575 215.969,161.575 218,155.5C 219.461,154.117 220.294,154.451 220.5,156.5 Z"/></g>
<g><path style="opacity:1" fill="#331405" d="M 65.5,198.5 C 66.379,201.117 66.2124,203.784 65,206.5C 64.1665,209.827 62.6665,212.827 60.5,215.5C 60.1718,221.533 58.6718,227.2 56,232.5C 54.6752,242.797 53.8419,253.13 53.5,263.5C 52.5424,280.465 52.2091,297.465 52.5,314.5C 48.5,314.5 44.5,314.5 40.5,314.5C 40.3334,300.163 40.5001,285.829 41,271.5C 43.4139,260.436 44.2472,249.436 43.5,238.5C 43.2322,236.901 43.5655,235.568 44.5,234.5C 44.369,235.239 44.5357,235.906 45,236.5C 47.1745,227.475 49.1745,218.475 51,209.5C 52.5723,203.372 54.4057,197.372 56.5,191.5C 58.1238,191.64 59.2904,190.973 60,189.5C 60.121,187.273 60.9544,185.44 62.5,184C 61.4464,182.612 61.2797,181.112 62,179.5C 62.3333,179.833 62.6667,180.167 63,180.5C 64.801,176.683 66.1343,172.683 67,168.5C 67.3333,168.167 67.6667,167.833 68,167.5C 68.3108,169.556 68.8108,171.556 69.5,173.5C 68.3915,175.214 69.0582,175.881 71.5,175.5C 68.1189,182.686 66.1189,190.353 65.5,198.5 Z"/></g>
<g><path style="opacity:1" fill="#a1b3b0" d="M 223.5,183.5 C 223.5,186.167 223.5,188.833 223.5,191.5C 222.5,191.5 221.5,191.5 220.5,191.5C 217.046,207.083 212.879,222.416 208,237.5C 205.448,257.42 203.781,277.42 203,297.5C 200.974,302.992 199.807,308.659 199.5,314.5C 198.833,314.5 198.167,314.5 197.5,314.5C 199.154,305.544 200.654,296.544 202,287.5C 202.962,268.08 204.796,248.746 207.5,229.5C 210.559,216.617 214.559,203.951 219.5,191.5C 220.323,188.52 221.657,185.853 223.5,183.5 Z"/></g>
<g><path style="opacity:1" fill="#130c0e" d="M 656.5,207.5 C 658.268,210.606 659.768,213.939 661,217.5C 664.237,234.389 666.903,251.389 669,268.5C 669.5,283.83 669.667,299.163 669.5,314.5C 668.833,314.5 668.167,314.5 667.5,314.5C 669.54,282.211 666.54,250.545 658.5,219.5C 657.833,215.5 657.167,211.5 656.5,207.5 Z"/></g>
<g><path style="opacity:1" fill="#889ba5" d="M 86.5,159.5 C 86.9382,159.435 87.2716,159.601 87.5,160C 83.2285,166.701 80.2285,173.867 78.5,181.5C 77.0688,182.903 75.9022,184.569 75,186.5C 59.8433,227.784 53.6767,270.451 56.5,314.5C 55.8333,314.5 55.1667,314.5 54.5,314.5C 54.3334,299.163 54.5001,283.83 55,268.5C 56.8348,255.163 58.6682,241.829 60.5,228.5C 63.61,217.723 66.2767,206.723 68.5,195.5C 70.0321,192.235 71.3654,188.902 72.5,185.5C 72.81,186.738 73.31,186.738 74,185.5C 76.8594,176.117 81.026,167.451 86.5,159.5 Z"/></g>
<g><path style="opacity:1" fill="#331304" d="M 207.5,170.5 C 207.987,176.565 206.32,181.899 202.5,186.5C 203.167,186.833 203.833,187.167 204.5,187.5C 202.862,188.705 202.529,190.038 203.5,191.5C 197.347,203.374 194.18,216.041 194,229.5C 192.265,234.607 190.765,239.774 189.5,245C 189.743,268.146 189.743,291.313 189.5,314.5C 185.5,314.5 181.5,314.5 177.5,314.5C 177.333,295.83 177.5,277.164 178,258.5C 179.496,233.511 184.162,209.178 192,185.5C 193.353,184.315 194.52,182.981 195.5,181.5C 196.182,176.711 197.348,172.045 199,167.5C 201.516,163.731 203.516,159.731 205,155.5C 209.872,151.23 213.372,146.564 215.5,141.5C 217.086,140.587 218.586,140.587 220,141.5C 220.333,140.833 220.667,140.167 221,139.5C 223.071,141.455 223.738,143.788 223,146.5C 218.001,148.832 214.834,152.665 213.5,158C 213.833,158.333 214.167,158.667 214.5,159C 213.034,160.552 212.034,162.386 211.5,164.5C 208.663,165.509 207.33,167.509 207.5,170.5 Z"/></g>
<g><path style="opacity:1" fill="#eceedf" d="M 207.5,229.5 C 204.796,248.746 202.962,268.08 202,287.5C 200.654,296.544 199.154,305.544 197.5,314.5C 196.167,314.5 194.833,314.5 193.5,314.5C 193.423,310.785 193.756,307.119 194.5,303.5C 195.833,303.5 197.167,303.5 198.5,303.5C 198.256,279.263 200.423,255.263 205,231.5C 205.708,230.619 206.542,229.953 207.5,229.5 Z"/></g>
<g><path style="opacity:1" fill="#f3ead7" d="M 58.5,175.5 C 52.1048,194.748 47.4382,214.414 44.5,234.5C 43.5655,235.568 43.2322,236.901 43.5,238.5C 38.9375,263.576 37.2708,288.91 38.5,314.5C 37.1667,314.5 35.8333,314.5 34.5,314.5C 34.3334,297.497 34.5001,280.497 35,263.5C 35.6667,262.167 36.3333,260.833 37,259.5C 36.9705,248.694 38.9705,238.361 43,228.5C 43.3333,224.5 43.6667,220.5 44,216.5C 44.6189,213.968 45.6189,211.635 47,209.5C 47.3333,206.5 47.6667,203.5 48,200.5C 52.3234,192.633 54.8234,184.299 55.5,175.5C 56.5,175.5 57.5,175.5 58.5,175.5 Z"/></g>
<g><path style="opacity:1" fill="#141111" d="M 60.5,228.5 C 58.6682,241.829 56.8348,255.163 55,268.5C 54.5001,283.83 54.3334,299.163 54.5,314.5C 53.8333,314.5 53.1667,314.5 52.5,314.5C 52.2091,297.465 52.5424,280.465 53.5,263.5C 54.9792,255.69 56.1459,247.69 57,239.5C 58.0395,235.69 59.2061,232.024 60.5,228.5 Z"/></g>
<g><path style="opacity:1" fill="#351205" d="M 521.5,166.5 C 522.315,167.429 523.148,168.429 524,169.5C 526.239,178.131 529.239,186.464 533,194.5C 543.02,233.852 546.52,273.852 543.5,314.5C 539.833,314.5 536.167,314.5 532.5,314.5C 536.346,267.082 530.013,221.249 513.5,177C 513.164,175.97 512.497,175.47 511.5,175.5C 510.833,171.833 510.167,168.167 509.5,164.5C 509.286,162.856 509.62,161.356 510.5,160C 506.359,158.689 503.692,155.856 502.5,151.5C 503.948,150.646 505.281,149.646 506.5,148.5C 507.881,150.937 509.714,152.27 512,152.5C 513.723,155.336 515.556,158.169 517.5,161C 517.167,161.333 516.833,161.667 516.5,162C 518.037,163.707 519.704,165.207 521.5,166.5 Z"/></g>
<g><path style="opacity:1" fill="#22150d" d="M 68.5,195.5 C 66.2767,206.723 63.61,217.723 60.5,228.5C 59.2061,232.024 58.0395,235.69 57,239.5C 56.1459,247.69 54.9792,255.69 53.5,263.5C 53.8419,253.13 54.6752,242.797 56,232.5C 58.6718,227.2 60.1718,221.533 60.5,215.5C 62.6665,212.827 64.1665,209.827 65,206.5C 66.2124,203.784 66.379,201.117 65.5,198.5C 66.1001,197.1 67.1001,196.1 68.5,195.5 Z"/></g>
<g><path style="opacity:1" fill="#6c8aa3" d="M 179.5,230.5 C 175.978,258.372 174.645,286.372 175.5,314.5C 170.5,314.5 165.5,314.5 160.5,314.5C 160.118,293.08 161.285,271.747 164,250.5C 164.896,246.232 166.396,242.232 168.5,238.5C 171.091,234.227 174.757,231.561 179.5,230.5 Z"/></g>
<g><path style="opacity:1" fill="#291408" d="M 675.5,238.5 C 677.067,239.681 677.901,241.347 678,243.5C 678.464,242.906 678.631,242.239 678.5,241.5C 679.404,242.209 679.737,243.209 679.5,244.5C 678.839,246.134 678.506,247.967 678.5,250C 681.188,271.407 682.188,292.907 681.5,314.5C 680.833,314.5 680.167,314.5 679.5,314.5C 679.193,308.141 678.527,301.807 677.5,295.5C 677.752,285.006 678.085,274.506 678.5,264C 678.716,260.502 677.716,257.502 675.5,255C 676.768,249.503 676.768,244.003 675.5,238.5 Z"/></g>
<g><path style="opacity:1" fill="#ede9cd" d="M 207.5,229.5 C 206.542,229.953 205.708,230.619 205,231.5C 200.423,255.263 198.256,279.263 198.5,303.5C 197.167,303.5 195.833,303.5 194.5,303.5C 193.756,307.119 193.423,310.785 193.5,314.5C 192.833,314.5 192.167,314.5 191.5,314.5C 191.052,292.735 191.719,271.069 193.5,249.5C 194.29,250.609 194.79,251.942 195,253.5C 195.146,243.277 196.646,233.277 199.5,223.5C 200.5,223.5 201.5,223.5 202.5,223.5C 202.348,219.513 203.015,216.179 204.5,213.5C 206.848,218.578 207.848,223.911 207.5,229.5 Z"/></g>
<g><path style="opacity:1" fill="#6a8ca2" d="M 651.5,193.5 C 653.167,198.167 654.833,202.833 656.5,207.5C 657.167,211.5 657.833,215.5 658.5,219.5C 658.334,224.179 658.501,228.845 659,233.5C 661.651,240.699 662.484,248.033 661.5,255.5C 662.5,255.5 663.5,255.5 664.5,255.5C 665.33,275.155 665.663,294.821 665.5,314.5C 661.5,314.5 657.5,314.5 653.5,314.5C 656.934,272.254 652.934,230.754 641.5,190C 642.957,187.586 644.291,185.086 645.5,182.5C 647.782,186.606 649.615,190.939 651,195.5C 651.464,194.906 651.631,194.239 651.5,193.5 Z"/></g>
<g><path style="opacity:1" fill="#6c8c9f" d="M 543.5,231.5 C 545.255,232.072 546.922,232.906 548.5,234C 553.757,239.411 556.923,245.911 558,253.5C 560.775,273.739 561.941,294.073 561.5,314.5C 556.5,314.5 551.5,314.5 546.5,314.5C 547.177,286.757 546.177,259.09 543.5,231.5 Z"/></g>
<g><path style="opacity:1" fill="#6a8da4" d="M 78.5,181.5 C 79.5958,185.413 79.7625,189.413 79,193.5C 68.7809,233.23 65.2809,273.563 68.5,314.5C 64.5,314.5 60.5,314.5 56.5,314.5C 53.6767,270.451 59.8433,227.784 75,186.5C 75.9022,184.569 77.0688,182.903 78.5,181.5 Z"/></g>
<g><path style="opacity:1" fill="#1e1711" d="M 679.5,244.5 C 683.079,267.676 684.412,291.009 683.5,314.5C 682.833,314.5 682.167,314.5 681.5,314.5C 682.188,292.907 681.188,271.407 678.5,250C 678.506,247.967 678.839,246.134 679.5,244.5 Z"/></g>
<g><path style="opacity:1" fill="#758a9b" d="M 658.5,219.5 C 666.54,250.545 669.54,282.211 667.5,314.5C 666.833,314.5 666.167,314.5 665.5,314.5C 665.663,294.821 665.33,275.155 664.5,255.5C 663.5,255.5 662.5,255.5 661.5,255.5C 662.484,248.033 661.651,240.699 659,233.5C 658.501,228.845 658.334,224.179 658.5,219.5 Z"/></g>
<g><path style="opacity:1" fill="#1c0f07" d="M 43.5,238.5 C 44.2472,249.436 43.4139,260.436 41,271.5C 40.5001,285.829 40.3334,300.163 40.5,314.5C 39.8333,314.5 39.1667,314.5 38.5,314.5C 37.2708,288.91 38.9375,263.576 43.5,238.5 Z"/></g>
</svg>
